# xmcd
#
# Track frame offsets:
#	150
#	24515
#	51470
#	81922
#	107166
#	130780
#	157740
#	177655
#	204299
#	233219
#	251886
#	274420
#	299643
#
# Disc length: 4401 seconds
#
# Revision: 1
# Processed by: cddbd v1.5.2PL0 Copyright (c) Steve Scherf et al.
# Submitted via: EasyCDDAExtractor 2010.6.0.0
#
DISCID=c2112f0d
DTITLE=Various Artist - Weapons Of Mass Creation - Three [CD1)
DYEAR=2007
DGENRE=Drum'n'Bass
TTITLE0=Hard-Fi - Hard To Beat (London Elektricity Remix)
TTITLE1=Sonic - Electrosound
TTITLE2=Apex feat. Ayah - Space Between
TTITLE3=Blame and The Pedge - Avalon
TTITLE4=Cyantific - Space Station Kru
TTITLE5=London Elektricity - The Great Drum and Bass Swindle
TTITLE6=Syncopix and Tomahawk - Collateral
TTITLE7=CLS - Their Names Were Trot And Melon
TTITLE8=A-Sides - Crabs In A Bucket
TTITLE9=L.A.O.S. - Panda Style
TTITLE10=Danny Byrd - Under The Sea
TTITLE11=Bungle and Index - Forgotten Souls
TTITLE12=Blu Mar Ten - Staring Over
EXTD=
EXTT0=
EXTT1=
EXTT2=
EXTT3=
EXTT4=
EXTT5=
EXTT6=
EXTT7=
EXTT8=
EXTT9=
EXTT10=
EXTT11=
EXTT12=
PLAYORDER=
